HIERARCHY
ROOT Hips
{
	OFFSET 0.000000 0.000000 0.000000 
	CHANNELS 6 Xposition Yposition Zposition Zrotation Yrotation Xrotation
	JOINT LeftUpLeg
	{
		OFFSET 1.363060 -1.794630 0.839290 
		CHANNELS 3 Zrotation Yrotation Xrotation
		JOINT LeftLeg
		{
			OFFSET 2.448110 -6.726130 0.000000 
			CHANNELS 3 Zrotation Yrotation Xrotation
			JOINT LeftFoot
			{
				OFFSET 2.562200 -7.039590 0.000000 
				CHANNELS 3 Zrotation Yrotation Xrotation
				JOINT LeftToeBase
				{
					OFFSET 0.157640 -0.433110 2.322550 
					CHANNELS 3 Zrotation Yrotation Xrotation
					End Site
					{
						OFFSET 0.000000 0.000000 0.000000 
					}
				}
			}
		}
	}
	JOINT RightUpLeg
	{
		OFFSET -1.305520 -1.794630 0.839290 
		CHANNELS 3 Zrotation Yrotation Xrotation
		JOINT RightLeg
		{
			OFFSET -2.542530 -6.985550 0.000000 
			CHANNELS 3 Zrotation Yrotation Xrotation
			JOINT RightFoot
			{
				OFFSET -2.568260 -7.056230 0.000000 
				CHANNELS 3 Zrotation Yrotation Xrotation
				JOINT RightToeBase
				{
					OFFSET -0.164730 -0.452590 2.363150 
					CHANNELS 3 Zrotation Yrotation Xrotation
					End Site
					{
						OFFSET 0.000000 0.000000 0.000000 
					}
				}
			}
		}
	}
	JOINT Spine
	{
		OFFSET 0.028270 2.035590 -0.193380 
		CHANNELS 3 Zrotation Yrotation Xrotation
		JOINT Spine1
		{
			OFFSET 0.056720 2.048850 -0.042750 
			CHANNELS 3 Zrotation Yrotation Xrotation
			JOINT Neck1
			{
				OFFSET -0.054170 1.746240 0.172020 
				CHANNELS 3 Zrotation Yrotation Xrotation
				JOINT Head
				{
					OFFSET 0.104070 1.761360 -0.123970 
					CHANNELS 3 Zrotation Yrotation Xrotation
					End Site
					{
						OFFSET 0.000000 0.000000 0.000000 
					}
				}
			}
			JOINT LeftArm
			{
				OFFSET 3.362410 1.200890 -0.311210 
				CHANNELS 3 Zrotation Yrotation Xrotation
				JOINT LeftForeArm
				{
					OFFSET 4.983000 -0.000000 -0.000000 
					CHANNELS 3 Zrotation Yrotation Xrotation
					JOINT LeftHand
					{
						OFFSET 3.483560 -0.000000 -0.000000 
						CHANNELS 3 Zrotation Yrotation Xrotation
						JOINT LeftHandIndex1
						{
							OFFSET 0.715260 -0.000000 -0.000000 
							CHANNELS 3 Zrotation Yrotation Xrotation
							End Site
							{
								OFFSET 0.000000 0.000000 0.000000 
							}
						}
					}
				}
			}
			JOINT RightArm
			{
				OFFSET -3.136600 1.374050 -0.404650 
				CHANNELS 3 Zrotation Yrotation Xrotation
				JOINT RightForeArm
				{
					OFFSET -5.241900 -0.000000 -0.000000 
					CHANNELS 3 Zrotation Yrotation Xrotation
					JOINT RightHand
					{
						OFFSET -3.444170 -0.000000 -0.000000 
						CHANNELS 3 Zrotation Yrotation Xrotation
						JOINT RightHandIndex1
						{
							OFFSET -0.622530 -0.000000 -0.000000 
							CHANNELS 3 Zrotation Yrotation Xrotation
							End Site
							{
								OFFSET 0.000000 0.000000 0.000000 
							}
						}
					}
				}
			}
		}
	}
}
MOTION
Frames: 15
Frame Time: 0.041667
4.413224 17.945138 -21.159606 -6.849496 -10.016281 2.453470 -3.341829 -12.497046 -28.699518 -1.176166 5.833152 16.227790 -2.711845 11.847893 10.199483 0.003300 0.373400 1.025900 27.392827 13.949834 0.872876 -0.575627 -5.482344 22.992956 -0.338672 -0.583222 -1.639651 -0.071800 -1.729200 4.757700 4.285639 2.721051 3.465500 -0.341538 1.325658 -8.260078 4.280585 -5.328866 17.570647 0.178800 -2.212900 8.949200 -82.598845 6.819900 23.243623 13.689632 -23.081848 -2.960291 -0.515172 -1.081237 -5.105711 -7.125000 0.000000 0.000000 72.535619 6.912615 18.906118 -13.092982 25.838104 -3.641238 1.071225 -0.347627 -0.766855 7.125000 0.000000 0.000000 
4.418840 17.936814 -20.992625 -6.938437 -10.091198 2.549900 -3.019012 -12.639930 -28.640871 -1.401926 5.301100 14.766781 -2.638354 11.471270 9.386492 0.002000 -0.289000 -0.794000 27.429472 13.828131 1.375634 -0.556802 -5.435450 22.872478 -0.374542 -0.498637 -1.806248 -0.069900 -1.705100 4.691400 4.141159 2.914096 3.653827 -0.545901 1.423211 -8.087463 4.170255 -5.558329 17.595524 0.056900 -2.302900 9.052200 -82.383886 6.522123 24.193174 13.431509 -22.721217 -2.854681 -0.535115 -1.078040 -6.549498 -7.125000 0.000000 0.000000 72.719176 7.544073 18.458260 -13.164057 25.901064 -3.666518 1.076627 -0.359407 -0.816254 7.125000 0.000000 0.000000 
4.423453 17.921370 -20.818623 -6.823939 -10.063896 2.633558 -2.850325 -13.031200 -28.520139 -1.581992 4.798472 13.422854 -2.635918 11.436392 9.203184 0.016400 -0.826000 -2.270200 27.285355 13.770431 1.800588 -0.577473 -5.471266 22.968966 -0.317167 -0.709366 -2.084564 -0.046500 -1.391200 3.825800 4.160184 2.920073 3.719779 -0.395205 1.442668 -8.007716 4.152389 -5.487152 17.765383 0.069600 -2.270000 9.153100 -82.484755 6.573640 24.614692 13.365845 -22.636877 -2.824544 -0.548362 -1.121276 -6.955286 -7.125000 0.000000 0.000000 72.613275 7.832379 18.424243 -13.307989 26.090774 -3.735225 1.077445 -0.349585 -0.866042 7.125000 0.000000 0.000000 
4.434285 17.898103 -20.640509 -6.796990 -10.104842 2.556594 -2.600342 -13.535236 -28.238356 -1.704281 4.373905 12.266649 -2.766176 11.899639 9.532506 0.002300 -0.312200 -0.857800 27.204724 13.650395 2.386777 -0.586328 -5.482490 22.999170 -0.292196 -0.783346 -2.092067 -0.027300 -1.066000 2.930400 4.249592 2.862304 3.846287 -0.258563 1.431396 -7.920974 4.122142 -5.303971 17.623229 0.097200 -2.201200 9.094600 -82.691110 6.761903 24.641751 13.353591 -22.608064 -2.819848 -0.547347 -1.104987 -6.631480 -7.125000 0.000000 0.000000 72.421002 7.962533 18.811063 -13.484536 26.338726 -3.821925 1.068726 -0.351229 -1.082783 7.125000 0.000000 0.000000 
4.446319 17.883460 -20.460791 -6.929098 -10.311477 2.429671 -2.344241 -13.605718 -27.878583 -1.805779 4.009385 11.239571 -2.806860 12.233070 10.407465 0.004400 0.428000 1.176000 27.299688 13.628198 3.049744 -0.626750 -5.536905 23.176648 -0.275931 -0.814599 -2.040378 -0.013300 -0.744500 2.046000 4.280226 2.994159 3.906643 -0.351502 1.494672 -7.979974 3.977561 -5.342473 17.382281 0.036300 -2.239600 8.976900 -82.695305 6.954440 24.783264 13.301194 -22.528566 -2.804535 -0.561340 -1.044140 -6.037931 -7.125000 0.000000 0.000000 72.317487 8.064876 18.913587 -13.539199 26.418878 -3.848748 1.056665 -0.382910 -1.278515 7.125000 0.000000 0.000000 
4.456850 17.878346 -20.280672 -7.150045 -10.448155 2.596253 -2.207769 -13.164106 -27.707505 -1.940329 3.591864 10.094338 -2.603795 11.826414 11.098142 0.022000 0.957900 2.633000 27.475274 13.694066 3.361942 -0.716799 -5.670245 23.615380 -0.337335 -0.633895 -2.100923 -0.015100 -0.793600 2.181100 4.270779 3.109976 3.806919 -0.530684 1.538580 -8.038570 4.007220 -5.421871 17.223665 0.031800 -2.277000 8.885200 -82.572083 7.072223 24.890459 13.290610 -22.524665 -2.801198 -0.562948 -1.053184 -5.158501 -7.125000 0.000000 0.000000 72.325153 8.108847 18.946290 -13.580667 26.473021 -3.868732 1.054035 -0.383715 -1.472009 7.125000 0.000000 0.000000 
4.468483 17.857987 -20.102558 -7.110470 -10.377594 2.767209 -2.256921 -13.201865 -27.626512 -2.037835 3.259555 9.247017 -2.508439 11.589636 11.239634 0.011300 0.685900 1.884900 27.394153 13.722112 3.495139 -0.815707 -5.828676 24.108005 -0.295112 -0.754581 -2.093456 -0.011700 -0.697200 1.915900 4.055112 3.184404 4.031811 -0.725158 1.574348 -7.799972 4.173467 -5.672255 17.503931 0.012400 -2.345200 9.155600 -82.312961 6.388500 25.455087 13.000927 -22.108173 -2.683446 -0.573166 -1.058631 -5.862360 -7.125000 0.000000 0.000000 72.549442 8.823096 18.531223 -13.602427 26.461442 -3.870393 1.065650 -0.373420 -1.378525 7.125000 0.000000 0.000000 
4.485733 17.810951 -19.909602 -6.962378 -10.400429 2.832270 -2.229430 -13.831122 -27.698883 -2.039693 3.192643 9.053977 -2.685230 12.149974 11.327953 0.050000 -1.442600 -3.967600 27.118874 13.582919 3.672695 -0.903701 -5.970177 24.559094 -0.377475 -0.494568 -1.927829 -0.014500 -0.778700 2.140100 3.739779 3.330781 4.453067 -0.959722 1.653993 -7.377369 4.107678 -5.959396 18.156870 -0.136600 -2.415700 9.677600 -81.938951 5.432864 26.243812 12.843021 -21.901149 -2.614361 -0.568346 -1.160886 -6.430243 -7.125000 0.000000 0.000000 72.843588 9.751963 17.933625 -13.650570 26.481852 -3.888795 1.065800 -0.371979 -1.273913 7.125000 0.000000 0.000000 
4.500877 17.802527 -19.720958 -6.933053 -10.306870 2.805571 -2.379488 -13.965613 -27.485306 -2.032633 3.224171 9.233862 -2.652408 11.985768 11.230518 0.006500 -0.522400 -1.435600 27.016099 13.376034 3.927085 -1.012940 -6.147623 25.105502 -0.451099 -0.246952 -1.699335 -0.009700 -0.637000 1.750400 4.224300 3.110813 3.485521 -0.520589 1.532172 -8.249787 4.137525 -5.436633 17.287976 0.116800 -2.288000 8.790800 -82.647291 7.719671 25.474069 12.978290 -22.107670 -2.666704 -0.582873 -1.174951 -5.883186 -7.125000 0.000000 0.000000 72.116802 7.772071 19.080537 -13.737678 26.694441 -3.941843 1.076570 -0.350177 -1.545007 7.125000 0.000000 0.000000 
4.509903 17.829705 -19.537930 -7.085658 -10.162763 2.811969 -2.808953 -13.225919 -27.698543 -1.999229 3.518429 10.102702 -2.195170 10.559131 11.092654 0.030500 1.126600 3.097200 27.200215 13.199806 4.384847 -1.074454 -6.210475 25.359411 -0.417518 -0.253875 -1.168142 0.000000 0.018600 -0.051100 4.203750 3.077782 3.813916 -0.635180 1.529869 -7.869314 4.076926 -5.480728 17.195386 0.063700 -2.305800 8.834400 -82.577364 7.110755 25.315026 12.719060 -21.700814 -2.573103 -0.615718 -1.034803 -4.615004 -7.125000 0.000000 0.000000 72.197375 8.496110 18.647999 -13.595578 26.467494 -3.868946 1.074238 -0.365171 -1.117445 7.125000 0.000000 0.000000 
4.528456 17.810249 -19.336048 -7.117190 -10.203493 2.657020 -3.253556 -12.860339 -27.964996 -1.889854 3.993035 11.429043 -2.023549 9.885470 10.544375 0.074700 1.763300 4.852000 27.225461 13.107541 4.977334 -1.172442 -6.340762 25.810805 -0.443203 -0.095994 -0.669148 -0.003400 0.375900 -1.032900 4.266181 3.051070 3.929770 -0.631972 1.526714 -7.749055 4.119411 -5.335747 17.290175 0.116100 -2.240400 8.848700 -82.698531 7.068310 25.059005 12.528025 -21.403359 -2.501099 -0.632154 -0.981823 -3.760083 -7.125000 0.000000 0.000000 72.077600 8.734773 18.540874 -13.428954 26.230636 -3.789035 1.076678 -0.360325 -0.858814 7.125000 0.000000 0.000000 
4.600965 17.846053 -18.968489 -6.702859 -13.342167 2.344814 -3.419990 -13.033680 -26.699222 -1.651945 4.562830 12.941017 -3.388292 13.216466 7.507226 0.082700 1.854400 5.103600 25.852766 14.550060 6.571768 -1.188457 -6.535026 26.186002 -1.003382 1.682630 0.243368 -0.003900 0.402500 -1.106000 3.819991 4.294716 4.742951 -1.328495 2.178432 -6.025412 4.110616 -5.421983 17.709186 0.082400 -2.257900 9.084900 -82.666741 7.009501 24.860251 12.382803 -21.167366 -2.449090 -0.637439 -0.925060 -3.835433 -7.125000 0.000000 0.000000 72.110796 8.963287 18.162312 -13.297075 26.025012 -3.726108 1.070482 -0.368521 -0.553064 7.125000 0.000000 0.000000 
4.557841 17.810650 -18.923158 -6.964461 -10.363025 2.762606 -4.401150 -11.908991 -28.488079 -1.659139 4.859490 13.876148 -1.884238 9.109112 9.060063 0.086700 1.899500 5.228100 26.843311 12.698758 5.166851 -1.442975 -6.736511 27.133829 -0.607842 0.593606 0.780787 -0.003800 0.398800 -1.095700 4.128091 3.194690 4.064149 -0.699810 1.604138 -7.413511 4.054477 -5.570859 18.041893 0.033900 -2.312700 9.234300 -82.607071 6.889948 24.360977 12.314488 -21.060873 -2.420885 -0.611018 -0.931482 -2.643762 -7.125000 0.000000 0.000000 72.156012 8.845872 17.820337 -13.319182 26.077413 -3.747874 1.058060 -0.374857 -0.265275 7.125000 0.000000 0.000000 
4.570678 17.796811 -18.712551 -6.987567 -10.297085 2.612152 -4.794112 -11.685777 -28.262219 -1.553023 5.145259 14.726324 -1.913275 9.217777 9.402789 0.089100 1.925100 5.298600 26.836298 12.298231 5.349056 -1.623465 -6.978347 27.959003 -0.613319 0.714822 1.564690 -0.005200 0.464600 -1.276500 4.172868 3.210722 4.002395 -0.679522 1.605586 -7.486409 4.165263 -5.577454 18.320182 0.088000 -2.301500 9.283900 -82.638198 7.348340 24.702371 12.182257 -20.881528 -2.368587 -0.631825 -0.953265 -3.730362 -7.125000 0.000000 0.000000 72.083434 8.320976 17.681815 -13.371930 26.174110 -3.779906 1.052744 -0.383743 -0.206516 7.125000 0.000000 0.000000 
4.588930 17.784976 -18.491915 -7.031795 -10.145729 2.431048 -5.218093 -11.459379 -27.916430 -1.493461 5.303208 15.283677 -1.766948 8.881954 10.236847 0.020600 0.925800 2.544600 26.807342 11.691302 5.341250 -1.866240 -7.292970 29.053283 -0.660802 0.955871 2.284954 -0.011600 0.696800 -1.914900 4.179904 3.201478 4.104424 -0.721149 1.600098 -7.369783 4.102721 -5.668271 18.383829 0.037700 -2.338800 9.307000 -82.640158 7.436169 24.765368 12.151217 -20.842865 -2.353084 -0.622810 -0.996834 -3.829374 -7.125000 0.000000 0.000000 72.034605 8.287085 17.287386 -13.238630 25.991409 -3.717233 1.053644 -0.400378 0.051341 7.125000 0.000000 0.000000 
